<?xml version="1.0" encoding="iso-8859-1"?>
<svg width="30px" height="30px" version="1.1" id="Layer_1" xmlns="http://www.w3.org/2000/svg" xmlns:xlink="http://www.w3.org/1999/xlink" x="0px" y="0px"
	 viewBox="0 0 393.568 393.568" style="enable-background:new 0 0 393.568 393.568;" xml:space="preserve">
<circle style="fill:#886C60;" cx="196.784" cy="196.784" r="196.784"/>
<polygon style="fill:#FBD303;" points="205.446,260.784 188.121,260.784 188.121,301.576 128.646,361.05 153.018,361.05 
	196.784,317.026 240.549,361.05 264.921,361.05 205.446,301.576 "/>
<path style="fill:#F1F3F7;" d="M69.689,100.073v149.333c0,9.956,8.145,18.101,18.101,18.101h217.988
	c9.956,0,18.101-8.145,18.101-18.101V100.073H69.689z"/>
<path style="fill:#6EB1E1;" d="M324.396,63.935H69.172c-9.956,0-18.101,8.145-18.101,18.101s8.145,18.101,18.101,18.101h255.224
	c9.956,0,18.101-8.145,18.101-18.101C342.432,72.081,334.352,63.935,324.396,63.935z"/>
<polygon style="fill:#F0582F;" points="262.012,136.275 262.012,147.782 278.238,147.782 247.337,178.424 224.582,155.669 
	187.087,193.099 156.444,162.715 97.487,221.673 105.632,229.818 156.444,178.941 187.087,209.39 224.582,171.895 247.337,194.715 
	286.384,155.927 286.384,171.895 297.632,171.895 297.632,136.275 "/>
<g>
</g>
<g>
</g>
<g>
</g>
<g>
</g>
<g>
</g>
<g>
</g>
<g>
</g>
<g>
</g>
<g>
</g>
<g>
</g>
<g>
</g>
<g>
</g>
<g>
</g>
<g>
</g>
<g>
</g>
</svg>
