<?xml version="1.0" encoding="iso-8859-1"?>
<svg width="30px" height="30px" version="1.1" id="Layer_1" xmlns="http://www.w3.org/2000/svg" xmlns:xlink="http://www.w3.org/1999/xlink" x="0px" y="0px"
	 viewBox="0 0 512 512" style="enable-background:new 0 0 512 512;" xml:space="preserve">
<circle style="fill:#FF873D;" cx="255.995" cy="255.996" r="255.995"/>
<path style="fill:#E37936;" d="M512,259.153l-63.684-63.684L66.522,319.842L258.68,511.999
	c139.034-1.419,251.586-113.813,253.162-253.005L512,259.153z"/>
<path style="fill:#F3F3FF;" d="M75.507,189.005h360.985c7.724,0,14.187,6.306,14.187,14.187v105.774
	c0,7.724-6.306,14.187-14.187,14.187H75.507c-7.724,0-14.187-6.306-14.187-14.187V203.192
	C61.32,195.468,67.626,189.005,75.507,189.005z"/>
<path style="fill:#1C6EBA;" d="M75.507,189.005h360.985c7.724,0,14.187,6.306,14.187,14.187v23.488H61.32v-23.488
	C61.32,195.468,67.626,189.005,75.507,189.005z"/>
<path style="fill:#FFFFFF;" d="M61.32,214.385v-10.404l315.744,4.572l-1.103-3.625l1.892,0.158l2.522,3.31c0.315,0-0.315,0,1.103,0
	s8.039-0.158,13.715-0.63l-3.784-13.083h1.577l10.876,12.453c3.625-0.158,6.621-0.315,7.566-0.315
	c2.837,0.158,5.832,0.63,6.779,2.207c-0.945,1.734-4.099,2.207-6.779,2.207c-0.945,0-3.784-0.158-7.566-0.315l-10.876,12.453h-1.577
	l3.784-13.083c-5.675-0.315-12.295-0.473-13.715-0.63c-1.419,0-0.788,0-1.103,0l-2.522,3.31l-1.892,0.158l1.103-3.625L61.32,214.073
	L61.32,214.385L61.32,214.385z"/>
<g>
	<path style="fill:#808080;" d="M145.34,250.168h147.862v7.882H145.34V250.168z M145.34,282.798h147.862v7.882H145.34V282.798z
		 M145.34,266.562h147.862v7.882H145.34V266.562z"/>
	<path style="fill:#808080;" d="M344.591,234.877h75.665v14.03h-75.665V234.877z M344.591,292.887h75.665v14.03h-75.665V292.887z
		 M344.591,263.882h75.665v14.03h-75.665V263.882z"/>
</g>
<g>
	<path style="fill:#E84F4F;" d="M337.34,234.877h-17.655v14.03h17.655V234.877z M337.34,292.887h-17.655v14.03h17.655V292.887z
		 M337.34,263.882h-17.655v14.03h17.655V263.882z"/>
	<path style="fill:#E84F4F;" d="M81.34,242.917h49.971c2.699,0,4.887,2.188,4.887,4.887v49.34c0,2.699-2.188,4.887-4.887,4.887
		H81.34c-2.699,0-4.887-2.188-4.887-4.887v-49.34C76.453,245.105,78.641,242.917,81.34,242.917z"/>
</g>
<path style="fill:#FFFFFF;" d="M105.458,292.572l-4.256,1.103l0.158-1.892l3.941-2.522c0-0.315,0,0.315,0-1.103
	s-0.315-8.039-0.63-13.715l-15.763,3.625v-1.577l15.133-10.876c-0.315-3.625-0.473-6.621-0.315-7.566
	c0.158-2.837,0.788-5.832,2.68-6.779c2.049,0.945,2.522,4.099,2.68,6.779c0,0.945-0.158,3.784-0.315,7.566l15.133,10.876v1.577
	l-15.763-3.625c-0.473,5.675-0.63,12.295-0.63,13.715c0,1.419,0,0.788,0,1.103l3.941,2.522l0.158,1.892l-4.256-1.103h-1.577H105.458
	z"/>
<g>
</g>
<g>
</g>
<g>
</g>
<g>
</g>
<g>
</g>
<g>
</g>
<g>
</g>
<g>
</g>
<g>
</g>
<g>
</g>
<g>
</g>
<g>
</g>
<g>
</g>
<g>
</g>
<g>
</g>
</svg>
