<?xml version="1.0" encoding="iso-8859-1"?>
<!-- Generator: Adobe Illustrator 19.0.0, SVG Export Plug-In . SVG Version: 6.00 Build 0)  -->
<svg width="30px" height="30px" version="1.1" id="Layer_1" xmlns="http://www.w3.org/2000/svg" xmlns:xlink="http://www.w3.org/1999/xlink" x="0px" y="0px"
	 viewBox="0 0 512 512" style="enable-background:new 0 0 512 512;" xml:space="preserve">
<path style="fill:#5D9BEB;" d="M0,256.006C0,397.402,114.606,512.004,255.996,512C397.394,512.004,512,397.402,512,256.006
	C512.009,114.61,397.394,0,255.996,0C114.606,0,0,114.614,0,256.006z"/>
<path style="fill:#4988DB;" d="M505.023,315.299l-0.849-0.774c-0.117-0.122-78.585-78.583-78.585-78.583
	c-0.116-0.122-0.165-0.282-0.293-0.397l-171.732-156.8c-0.054-0.049-0.125-0.061-0.179-0.108c-0.028-0.022-0.064-0.031-0.091-0.054
	c-1.504-1.264-3.35-1.869-5.189-1.762c-0.028,0.001-0.053-0.014-0.082-0.012c-0.347,0.023-0.631,0.195-0.961,0.263
	C246.46,77.195,86.22,250.956,86.22,250.956c-1.357,1.484-2.058,3.449-1.94,5.454c0.11,2.002,1.021,3.879,2.537,5.199L198.6,373.319
	l-38.13,49.869c-1.758,2.293-2.034,5.396-0.707,7.963c0.662,1.286,1.685,2.289,2.889,2.99c0.49,0.517,76.494,76.748,77.103,77.104
	c0.067,0.071,0.141,0.13,0.206,0.206c5.308,0.329,10.644,0.549,16.035,0.549C376.974,512.002,478.268,428.086,505.023,315.299z"/>
<path style="fill:#F4F6F9;" d="M425.297,235.546l-171.733-156.8c-0.053-0.049-0.124-0.06-0.178-0.108
	c-0.028-0.023-0.064-0.031-0.091-0.054c-1.504-1.264-3.35-1.869-5.189-1.762c-0.028,0.001-0.053-0.013-0.083-0.012
	c-0.347,0.023-0.63,0.195-0.961,0.263c-0.601,0.123-1.201,0.213-1.763,0.484c-0.547,0.265-0.98,0.67-1.44,1.053
	c-0.272,0.223-0.594,0.347-0.838,0.613L86.22,250.957c-1.356,1.484-2.057,3.449-1.939,5.454c0.11,2.001,1.021,3.879,2.538,5.199
	l118.153,103.382l-44.499,58.196c-1.757,2.293-2.034,5.396-0.707,7.963c1.283,2.486,3.85,4.039,6.636,4.039
	c0.087,0,0.175,0,0.27-0.003l209.067-7.467c2.924-0.106,5.52-1.91,6.636-4.62c1.116-2.705,0.547-5.815-1.458-7.952l-52.989-56.517
	l97.978-112.674C428.557,242.899,428.294,238.276,425.297,235.546z M247.82,182.491c-47.618,3.924-86.434,21.296-113.189,37.588
	l107.651-117.9L247.82,182.491z M257.267,102.341l109.068,99.588c-37.38-15.316-72.185-20.821-103.591-20.189L257.267,102.341z
	 M106.66,259.134c11.19-10.657,63.523-56.369,142.139-62.45l7.021,101.809l-41.76,54.614L106.66,259.134z M264.035,312.326
	l43.769,46.683l-37.593,43.231l-44.891-39.279L264.035,312.326z M216.233,374.847l47.904,41.916l-82.199,2.937L216.233,374.847z
	 M358.783,413.381l-80.982,2.893l40.273-46.313L358.783,413.381z M317.655,347.679l-46.919-50.044l-7.006-101.579
	c40.368-0.429,86.862,9.854,137.796,40.017c1.028,0.609,2.135,0.871,3.248,0.955l5.071,4.63L317.655,347.679z"/>
<g>
</g>
<g>
</g>
<g>
</g>
<g>
</g>
<g>
</g>
<g>
</g>
<g>
</g>
<g>
</g>
<g>
</g>
<g>
</g>
<g>
</g>
<g>
</g>
<g>
</g>
<g>
</g>
<g>
</g>
</svg>
